HIERARCHY
ROOT root
{
	OFFSET 0.000000 0.000000 0.000000
	CHANNELS 6 Xposition Yposition Zposition Zrotation Yrotation Xrotation
	JOINT lhip
	{
		OFFSET 0.058581 -0.082280 -0.017664
		CHANNELS 3 Zrotation Yrotation Xrotation
		JOINT lknee
		{
			OFFSET 0.043451 -0.386469 0.008037
			CHANNELS 3 Zrotation Yrotation Xrotation
			JOINT lankle
			{
				OFFSET -0.014790 -0.426874 -0.037428
				CHANNELS 3 Zrotation Yrotation Xrotation
				JOINT ltoe
				{
					OFFSET 0.041054 -0.060286 0.122042
					CHANNELS 3 Zrotation Yrotation Xrotation
					End Site
					{
						OFFSET 0.000000 0.000000 0.000000
					}
				}
			}
		}
	}
	JOINT rhip
	{
		OFFSET -0.060310 -0.090513 -0.013543
		CHANNELS 3 Zrotation Yrotation Xrotation
		JOINT rknee
		{
			OFFSET -0.043257 -0.383688 -0.004843
			CHANNELS 3 Zrotation Yrotation Xrotation
			JOINT rankle
			{
				OFFSET 0.019056 -0.420046 -0.034562
				CHANNELS 3 Zrotation Yrotation Xrotation
				JOINT rtoe
				{
					OFFSET -0.034840 -0.062106 0.130323
					CHANNELS 3 Zrotation Yrotation Xrotation
					End Site
					{
						OFFSET 0.000000 0.000000 0.000000
					}
				}
			}
		}
	}
	JOINT lowerback
	{
		OFFSET 0.004439 0.124404 -0.038385
		CHANNELS 3 Zrotation Yrotation Xrotation
		JOINT upperback
		{
			OFFSET 0.004488 0.137956 0.026820
			CHANNELS 3 Zrotation Yrotation Xrotation
			JOINT chest
			{
				OFFSET -0.002265 0.056032 0.002855
				CHANNELS 3 Zrotation Yrotation Xrotation
				JOINT lowerneck
				{
					OFFSET -0.013390 0.211636 -0.033468
					CHANNELS 3 Zrotation Yrotation Xrotation
					JOINT upperneck
					{
						OFFSET 0.010113 0.088937 0.050410
						CHANNELS 3 Zrotation Yrotation Xrotation
						End Site
						{
							OFFSET 0.000000 0.000000 0.000000
						}
					}
				}
				JOINT lclavicle
				{
					OFFSET 0.071702 0.114000 -0.018898
					CHANNELS 3 Zrotation Yrotation Xrotation
					JOINT lshoulder
					{
						OFFSET 0.122921 0.045205 -0.019046
						CHANNELS 3 Zrotation Yrotation Xrotation
						JOINT lelbow
						{
							OFFSET 0.255332 -0.015649 -0.022946
							CHANNELS 3 Zrotation Yrotation Xrotation
							JOINT lwrist
							{
								OFFSET 0.265709 0.012698 -0.007375
								CHANNELS 3 Zrotation Yrotation Xrotation
								End Site
								{
									OFFSET 0.000000 0.000000 0.000000
								}
							}
						}
					}
				}
				JOINT rclavicle
				{
					OFFSET -0.082954 0.112472 -0.023707
					CHANNELS 3 Zrotation Yrotation Xrotation
					JOINT rshoulder
					{
						OFFSET -0.113228 0.046853 -0.008472
						CHANNELS 3 Zrotation Yrotation Xrotation
						JOINT relbow
						{
							OFFSET -0.260127 -0.014369 -0.031269
							CHANNELS 3 Zrotation Yrotation Xrotation
							JOINT rwrist
							{
								OFFSET -0.269108 0.006794 -0.006027
								CHANNELS 3 Zrotation Yrotation Xrotation
								End Site
								{
									OFFSET 0.000000 0.000000 0.000000
								}
							}
						}
					}
				}
			}
		}
	}
}
MOTION
Frames: 5
Frame Time: 0.033333
0.069333 0.486993 0.982083 92.646549 1.267175 87.470438 -8.369160 -1.374972 -2.309761 -4.822755 -6.760975 14.185857 8.409883 19.636524 -15.162980 0.000000 -0.000000 0.000000 -17.572990 -2.314639 -5.779018 -1.957644 2.504785 37.352727 10.071187 -15.760451 6.122174 0.000000 -0.000000 0.000000 4.972133 -3.551466 7.641828 3.027206 -6.554641 -7.647322 -0.190356 2.626784 5.321759 -3.436961 3.267134 22.880341 0.662889 2.488004 13.581585 16.772548 1.774003 -15.448992 10.136042 -24.162512 -23.158543 41.331384 -41.013449 -45.919905 -7.738535 -12.347258 -27.688983 -10.619885 -4.510962 -14.907379 8.095486 3.556852 -9.948043 -113.981165 59.518694 -116.014857 12.545574 12.764641 -30.772442 
0.068832 0.487155 0.982023 92.598059 1.072166 87.242866 -8.617211 -1.224010 -2.102832 -4.720581 -6.724226 14.184685 8.505242 19.563942 -15.147466 0.000000 -0.000000 0.000000 -16.928436 -1.869179 -7.227623 -1.614762 2.681296 39.710833 10.128820 -15.185096 4.766832 0.000000 -0.000000 0.000000 4.635878 -3.748368 7.833356 3.032488 -6.479293 -6.992831 -0.251445 2.514413 5.019887 -3.559690 3.133983 23.470640 0.610029 2.371406 13.605114 16.147729 1.876131 -15.473354 9.705483 -24.059008 -22.361831 42.911822 -42.932066 -47.597273 -7.861595 -12.851189 -28.459979 -9.978327 -4.332128 -14.752902 8.750375 3.618223 -9.312970 -113.758867 59.295877 -115.523633 12.303665 13.023973 -30.828785 
0.067603 0.486905 0.982424 92.650061 1.009679 86.936878 -8.705883 -1.468721 -1.840738 -4.664709 -6.732326 14.126166 8.600267 19.707185 -14.884363 0.000000 -0.000000 0.000000 -16.030593 -1.256428 -8.542179 -0.867035 2.951654 41.944417 9.914159 -14.593316 3.478479 0.000000 -0.000000 0.000000 4.542890 -4.007354 8.497329 2.962292 -6.462372 -6.705244 -0.362388 2.363252 4.637685 -3.609968 2.998588 23.535698 0.513346 2.150556 14.531302 15.559238 1.863621 -15.246023 9.262762 -24.444391 -21.994572 44.655551 -44.034625 -48.725494 -9.011761 -13.452547 -28.761997 -9.425256 -4.041529 -14.384695 9.699665 3.910242 -8.754752 -113.045787 58.792679 -114.450670 13.139620 13.241043 -31.624138 
0.066985 0.486549 0.982905 92.547160 1.001989 86.733567 -8.881949 -1.612405 -1.652198 -4.515394 -7.019621 14.121137 8.773247 20.207993 -14.857420 0.000000 -0.000000 0.000000 -14.912539 -0.667539 -10.087805 -0.619147 2.902655 44.082670 9.371122 -14.422788 3.254858 0.000000 -0.000000 0.000000 4.396770 -4.193664 8.539252 2.994121 -6.414149 -5.763924 -0.358852 2.283903 4.194064 -4.088053 2.846010 24.160241 0.756147 2.180069 14.231244 14.861630 1.377823 -15.063305 8.538120 -24.481706 -21.671408 46.980949 -45.093276 -50.962772 -9.708341 -13.719178 -28.681655 -8.992227 -3.854454 -14.450648 10.630639 4.083210 -8.240922 -112.885089 58.997238 -114.104744 13.724229 13.247014 -31.647049 
0.065382 0.486387 0.983363 92.548438 0.964050 86.458530 -9.129566 -2.284336 -1.542585 -4.345218 -6.982736 14.338382 8.987000 20.869532 -14.710782 0.000000 -0.000000 0.000000 -13.732199 0.083538 -11.642142 -0.593180 2.686387 46.180204 8.842097 -14.800013 3.091446 0.000000 -0.000000 0.000000 4.226913 -4.439971 9.183215 3.040254 -6.275997 -5.582910 -0.360258 2.169723 4.074658 -4.215362 2.527278 24.019014 0.677481 2.109455 15.142168 14.449962 1.272789 -14.942286 7.618969 -24.878127 -21.119997 48.931589 -46.063262 -52.257824 -9.267694 -13.726605 -29.019880 -8.467638 -3.693763 -14.164435 11.609842 4.313572 -7.602849 -112.627342 58.994869 -113.374536 13.255706 13.139026 -32.020144 
